<svg xmlns="http://www.w3.org/2000/svg" version="1.1" xmlns:xlink="http://www.w3.org/1999/xlink" xmlns:svgjs="http://svgjs.dev/svgjs" width="100%" height="100%" viewBox="0 0 1000 600"><rect width="1000" height="600" x="0" y="0" fill="#0737a4"/><g><circle r="166.66666666666666" cx="253.81330362955725" cy="276.0355460873296" fill="#5079d7" transform="matrix(1.4343638465604216,0,0,1.4343638465604214,0,-95.93539951914302)"/><path d="M313.4823708741775 338.04874998310595L308.31773823433514 351.0355446794084Q303.278460755654 351.0355446794084 298.26425430920517 350.35862680913783Q293.25004786275633 349.68170893886725 288.46148070639777 347.3250319090363Q283.6979845822714 344.9934259114376 279.18519878046743 340.6059952707949Q274.6724129786634 336.24363566238435 270.6861188537366 328.7473970249433L270.6861188537366 328.7473970249433L269.78356169337576 327.11777992984753Q269.33228311319544 326.3155068984157 268.881004533015 325.58844696368055L268.881004533015 325.58844696368055L267.9784473726543 338.04874998310595Q264.6440000857657 338.7507388856088 261.13405557325154 339.1268043690925Q257.5990400285051 339.4777988203439 253.81331416143624 339.4777988203439L253.81331416143624 339.4777988203439Q239.54789682128927 339.4777988203439 228.26593231677938 334.2379530838049Q216.9839678122695 329.02317837949806 209.08659265911257 319.7719674857999Q201.18921750595567 310.5207565921018 197.00235512317087 297.8348142825862Q192.79042170815384 285.14887197307064 192.79042170815384 270.2566788271176L192.79042170815384 270.2566788271176Q192.79042170815384 255.36448568116452 196.85192892977742 242.67854337164897Q200.91343615140096 229.9926010621334 208.73559820786116 220.7413901684353Q216.5326892320891 211.49017927473716 227.91493786552797 206.27540457043037Q239.2721154667346 201.03555883389134 253.81331416143624 201.03555883389134L253.81331416143624 201.03555883389134Q267.9784473726543 201.03555883389134 279.31055394162854 206.27540457043037Q290.6426605106029 211.49017927473716 298.5400356637599 220.7413901684353Q306.4374108169168 229.9926010621334 310.62427319970163 242.67854337164897Q314.83620661471866 255.36448568116452 314.83620661471866 270.2566788271176L314.83620661471866 270.2566788271176Q314.83620661471866 279.7335290109059 313.1564474551583 288.35796409879794Q311.4766882955979 296.98239918668986 308.2425251376384 304.4284957596664Q304.9832909474467 311.87459233264303 300.24486585555246 317.9919241973106Q295.50644076365836 324.13432709421045 289.3640378667585 328.6471128960144L289.3640378667585 328.6471128960144Q291.9964962511442 331.98156018290285 294.4785284421364 333.8368165680889Q296.96056063312847 335.692072953275 299.79358727537215 336.6447721781003Q302.651684949848 337.5974714029255 305.935990172272 337.8231106930158Q309.2202953946959 338.04874998310595 313.4823708741775 338.04874998310595L313.4823708741775 338.04874998310595ZM296.0580034727677 273.064634437129L296.0580034727677 273.064634437129Q296.0580034727677 265.8441771542426 295.05516218347793 258.84935916144644Q294.07739192642043 251.85454116865031 291.89621212221516 245.56171207835706Q289.7401033502422 239.29395402029598 286.3053719344248 233.9287531225957Q282.8706405186073 228.56355222489546 278.13221542671306 224.6775422288976Q273.39379033481896 220.79153223289978 267.22631640568693 218.58528139646228Q261.0337714443226 216.37903056002477 253.26175145232685 216.37903056002477L253.26175145232685 216.37903056002477Q242.1803552056749 216.37903056002477 234.282980052518 220.66617707173856Q226.38560489936108 224.95332358345232 221.32125638844775 232.0734967374097Q216.25690787753442 239.21874092359923 213.9253018799357 248.31952562390393Q211.56862485010475 257.4453813564408 211.56862485010475 267.0977287658548L211.56862485010475 267.0977287658548Q211.56862485010475 274.41847017767014 212.621608203859 281.4383592026985Q213.649520525381 288.4833192599591 215.80562929735402 294.85136144694917Q217.98680910155926 301.2194036339392 221.37139845291225 306.58460453163946Q224.7559878042652 311.9498054293398 229.49441289615936 315.8358154253376Q234.2328379880535 319.72182542133544 240.40031191718558 321.9280762577729Q246.5928568785499 324.13432709421045 254.3648768705456 324.13432709421045L254.3648768705456 324.13432709421045Q257.7745372541308 324.13432709421045 260.93348731539356 323.68304851403Q264.09243737665633 323.2317699338496 266.9003929866677 322.4294969024178L266.9003929866677 322.4294969024178Q264.2930056345143 318.36798968079427 261.81097344352213 316.0113126509633Q259.32894125252994 313.67970665336463 256.6212697714476 312.50136813844915Q253.9135982903652 311.3230296235336 250.65436410017347 311.0472482689789Q247.3951299099817 310.7714669144242 243.15812546273244 310.7714669144242L243.15812546273244 310.7714669144242L248.2976870703425 297.7846722181217Q253.26175145232685 297.7846722181217 257.9751055119888 298.8627266041082Q262.6633885394184 299.94078099009477 267.22631640568693 302.6484524711771Q271.76417323972305 305.35612395225945 276.20174594483035 310.0694780119214Q280.61424761770525 314.75776103935107 284.9515361938835 321.97821832223747L284.9515361938835 321.97821832223747L284.9515361938835 309.618199431741Q290.7178736072997 302.29745801992567 293.40047405614985 292.72032370720837Q296.0580034727677 283.16826042672335 296.0580034727677 273.064634437129Z " fill="#ffffff" transform="matrix(1.4343638465604216,0,0,1.4343638465604214,0,-95.93539951914302)"/><path d="M506.79125473374165 222.98407123370228L503.81331364080006 202.13848358311114Q506.901548848295 201.8351747680893 511.1478722586006 201.64216006762086Q515.4217691975446 201.44914536715243 519.9438278942337 201.28370419532234Q524.4658865909228 201.14583655213062 528.8776511730584 201.0906894948539Q533.2894157551941 201.03554243757722 536.5706656631576 201.03554243757722L536.5706656631576 201.03554243757722Q552.3427240442927 201.03554243757722 565.7986060198066 204.9234099755843Q579.2544879953202 208.783703984953 589.0706641905722 217.2212037482875Q598.9144139144626 225.65870351162204 604.4566931707704 238.86642372939076Q610.0265459557168 252.07414394715948 610.0265459557168 270.6311287207677L610.0265459557168 270.6311287207677Q610.0265459557168 285.1348047845388 607.2416195632436 296.68811328400665Q604.4566931707704 308.24142178347444 599.5486050731445 317.17524506229927Q594.6405169755185 326.10906834112404 587.7471348159315 332.5337005138591Q580.8537526563446 338.9307591579559 572.5541205362017 343.0392149250697Q564.2544884160591 347.1752442208219 554.9346357362974 349.1053912255063Q545.6147830565358 351.0355382301907 535.6883127467304 351.0355382301907L535.6883127467304 351.0355382301907L506.79125473374165 351.0355382301907L506.79125473374165 222.98407123370228ZM525.1552248068815 217.02818904781907L527.6368423843328 236.88112966742966L527.6368423843328 335.15318573450224L529.6221364462938 335.15318573450224Q544.0155183955114 335.15318573450224 554.0522828198702 332.17524464156054Q564.0614737155906 329.19730354861906 570.6791205887941 324.2892154509931Q577.2691939333592 319.3811273533671 580.9916202995362 312.95649518063203Q584.7140466657133 306.55943653653526 586.5614730844825 299.7212014342249Q588.3813259746134 292.85539280327623 588.7949289041887 286.1274518155193Q589.1809583051256 279.37193729912406 589.1809583051256 273.6090698137093L589.1809583051256 273.6090698137093Q589.1809583051256 261.00796722598426 587.0026495426962 250.41973222885855Q584.8243407802665 239.85907076037125 578.9511791802986 232.27635038482555Q573.1055911089686 224.6660564806415 562.6276502263966 220.44730659897425Q552.1497093438243 216.228556717307 535.6883127467304 216.228556717307L535.6883127467304 216.228556717307Q534.0890480857063 216.228556717307 532.2967687242135 216.33885083186038Q530.504489362721 216.42157141777543 528.932798230335 216.6421596468822L528.932798230335 216.6421596468822Q527.1405188688425 216.83517434735063 525.1552248068815 217.02818904781907L525.1552248068815 217.02818904781907Z " fill="#ffffff" transform="matrix(1.4343638465604216,0,0,1.4343638465604214,0,-95.93539951914302)"/></g></svg>